{"asset":{"generator":"Khronos glTF Spline I/O v0.0.1","version":"2.0"},"scenes":[{"nodes":[0]}],"nodes":[{"name":"","children":[1,2,3,4]},{"name":"Camera","camera":0,"translation":[-2.4066985672705603,-1.5374073307049814,999.9999999999214],"rotation":[-1.3955503419538221e-16,1.3183898417423736e-16,1.839879394472015e-32,1],"children":[5,6]},{"name":"Directional Light","translation":[-211.29462719354513,206.41380876495333,71.83698802180416],"rotation":[-0.56950718702636,-0.23980506783848357,0.30511501617424763,0.7246101850438562],"extensions":{"KHR_lights_punctual":{"light":0}}},{"name":"Empty Object","matrix":[1,0,0,0,0,1,0,0,0,0,1,0,-102.35633501835196,79.89522181640925,2.0463630789890885e-11,1],"children":[7,8,9,10,11,12,13,14,15,16,17,18]},{"name":"Personal Camera","camera":1,"translation":[-2.4066985672706966,-1.5374073307050566,1000.0000000000001],"rotation":[-3.061616997868383e-17,-1.13467e-319,0,1]},{"name":"Sphere","matrix":[1,0,-8.003e-320,0,0,1,6.123233995736766e-17,0,8.003e-320,-6.123233995736766e-17,1,0,4.5931114e-317,-3.5269827815443773e-14,-424,1],"mesh":0},{"name":"Default Directional Light","translation":[850000,1300000,1000000],"rotation":[-0.45895513091666534,0.1367267597249462,-0.25064115022945466,0.8413352451859125],"extensions":{"KHR_lights_punctual":{"light":1}}},{"name":"Rectangle","matrix":[0.5250113344415899,0,0,0,0,1.0948200674416891e-16,-0.31745403111739756,0,0,0.49306312477681336,7.048895492132112e-17,0,0,-149.8649560523372,-2.05773176276125e-11,1],"mesh":1},{"name":"Shape 5","matrix":[0.5250113344415899,0,6.3054437257886795e-270,0,6.385344650562302e-286,0.49306312477681324,-1.9438453154217256e-17,0,-1.042805918409786e-269,3.019140887677582e-17,0.3174540311173975,0,31.78154703099615,-153.5104219332862,393.1822728206424,1],"mesh":2},{"name":"Shape 12","matrix":[0.5250113344415899,0,6.3054437257886795e-270,0,6.385344650562302e-286,0.49306312477681324,-1.9438453154217256e-17,0,-1.042805918409786e-269,3.019140887677582e-17,0.3174540311173975,0,31.78154703099615,-153.51042193328635,-1147.2256722324905,1],"mesh":3},{"name":"Shape 11","matrix":[0.5250113344415899,0,6.3054437257886795e-270,0,6.385344650562302e-286,0.49306312477681324,-1.9438453154217256e-17,0,-1.042805918409786e-269,3.019140887677582e-17,0.3174540311173975,0,31.78154703099615,-153.51042193328635,-948.214174231746,1],"mesh":4},{"name":"Shape 10","matrix":[0.5250113344415899,0,6.3054437257886795e-270,0,6.385344650562302e-286,0.49306312477681324,-1.9438453154217256e-17,0,-1.042805918409786e-269,3.019140887677582e-17,0.3174540311173975,0,31.78154703099615,-153.51042193328632,-720.8649261564121,1],"mesh":5},{"name":"Shape 9","matrix":[0.5250113344415899,0,6.3054437257886795e-270,0,6.385344650562302e-286,0.49306312477681324,-1.9438453154217256e-17,0,-1.042805918409786e-269,3.019140887677582e-17,0.3174540311173975,0,31.78154703099615,-153.5104219332863,-536.3450963989187,1],"mesh":6},{"name":"Shape 8","matrix":[0.5250113344415899,0,6.3054437257886795e-270,0,6.385344650562302e-286,0.49306312477681324,-1.9438453154217256e-17,0,-1.042805918409786e-269,3.019140887677582e-17,0.3174540311173975,0,31.78154703099615,-153.5104219332863,-384.7982928985489,1],"mesh":7},{"name":"Shape 7","matrix":[0.5250113344415899,0,6.3054437257886795e-270,0,6.385344650562302e-286,0.49306312477681324,-1.9438453154217256e-17,0,-1.042805918409786e-269,3.019140887677582e-17,0.3174540311173975,0,31.78154703099615,-153.51042193328627,-195.20339192010488,1],"mesh":8},{"name":"Shape 6","matrix":[0.5250113344415899,0,6.3054437257886795e-270,0,6.385344650562302e-286,0.49306312477681324,-1.9438453154217256e-17,0,-1.042805918409786e-269,3.019140887677582e-17,0.3174540311173975,0,31.78154703099615,-153.51042193328624,17.038474858192103,1],"mesh":9},{"name":"Shape 4","matrix":[0.5250113344415899,0,6.3054437257886795e-270,0,6.385344650562302e-286,0.49306312477681324,-1.9438453154217256e-17,0,-1.042805918409786e-269,3.019140887677582e-17,0.3174540311173975,0,31.78154703099615,-153.51042193328624,201.47034560800182,1],"mesh":10},{"name":"Shape 3","matrix":[0.5250113344415899,0,6.3054437257886795e-270,0,6.385344650562302e-286,0.49306312477681324,-1.9438453154217256e-17,0,-1.042805918409786e-269,3.019140887677582e-17,0.3174540311173975,0,31.78154703099615,-153.51042193328618,560.5150050526724,1],"mesh":11},{"name":"Shape 2","matrix":[0.5250113344415899,0,6.3054437257886795e-270,0,6.385344650562302e-286,0.49306312477681324,-1.9438453154217256e-17,0,-1.042805918409786e-269,3.019140887677582e-17,0.3174540311173975,0,31.78154703099615,-153.51042193328618,769.4477851670622,1],"mesh":12}],"cameras":[{"type":"perspective","perspective":{"aspectRatio":2.047976011994003,"yfov":0.7853981633974483,"znear":50,"zfar":50000}},{"type":"perspective","perspective":{"aspectRatio":2.047976011994003,"yfov":0.7853981633974483,"znear":5,"zfar":100000}}],"meshes":[{"primitives":[{"attributes":{"POSITION":1,"NORMAL":2,"TEXCOORD_0":3},"indices":0}]},{"primitives":[{"attributes":{"POSITION":5,"NORMAL":6,"TEXCOORD_0":7},"indices":4}]},{"primitives":[{"attributes":{"POSITION":9,"NORMAL":10,"TEXCOORD_0":11},"indices":8}]},{"primitives":[{"attributes":{"POSITION":13,"NORMAL":14,"TEXCOORD_0":15},"indices":12}]},{"primitives":[{"attributes":{"POSITION":17,"NORMAL":18,"TEXCOORD_0":19},"indices":16}]},{"primitives":[{"attributes":{"POSITION":21,"NORMAL":22,"TEXCOORD_0":23},"indices":20}]},{"primitives":[{"attributes":{"POSITION":25,"NORMAL":26,"TEXCOORD_0":27},"indices":24}]},{"primitives":[{"attributes":{"POSITION":29,"NORMAL":30,"TEXCOORD_0":31},"indices":28}]},{"primitives":[{"attributes":{"POSITION":33,"NORMAL":34,"TEXCOORD_0":35},"indices":32}]},{"primitives":[{"attributes":{"POSITION":37,"NORMAL":38,"TEXCOORD_0":39},"indices":36}]},{"primitives":[{"attributes":{"POSITION":41,"NORMAL":42,"TEXCOORD_0":43},"indices":40}]},{"primitives":[{"attributes":{"POSITION":45,"NORMAL":46,"TEXCOORD_0":47},"indices":44}]},{"primitives":[{"attributes":{"POSITION":49,"NORMAL":50,"TEXCOORD_0":51},"indices":48}]}],"buffers":[{"uri":"data:application/octet-stream;base64,","byteLength":183584},{"uri":"data:application/octet-stream;base64,","byteLength":152},{"uri":"data:application/octet-stream;base64,","byteLength":72576},{"uri":"data:application/octet-stream;base64,","byteLength":72576},{"uri":"data:application/octet-stream;base64,","byteLength":72576},{"uri":"data:application/octet-stream;base64,","byteLength":72576},{"uri":"data:application/octet-stream;base64,","byteLength":72576},{"uri":"data:application/octet-stream;base64,","byteLength":72576},{"uri":"data:application/octet-stream;base64,","byteLength":72576},{"uri":"data:application/octet-stream;base64,","byteLength":72576},{"uri":"data:application/octet-stream;base64,","byteLength":72576},{"uri":"data:application/octet-stream;base64,","byteLength":72576},{"uri":"data:application/octet-stream;base64,","byteLength":72576}],"bufferViews":[{"buffer":0,"byteOffset":0,"byteLength":48384,"target":34963},{"buffer":0,"byteOffset":48384,"byteLength":50700,"target":34962},{"buffer":0,"byteOffset":99084,"byteLength":50700,"target":34962},{"buffer":0,"byteOffset":149784,"byteLength":33800,"target":34962},{"buffer":1,"byteOffset":0,"byteLength":24,"target":34963},{"buffer":1,"byteOffset":24,"byteLength":48,"target":34962},{"buffer":1,"byteOffset":72,"byteLength":48,"target":34962},{"buffer":1,"byteOffset":120,"byteLength":32,"target":34962},{"buffer":2,"byteOffset":0,"byteLength":7872,"target":34963},{"buffer":2,"byteOffset":7872,"byteLength":21568,"target":34962},{"buffer":2,"byteOffset":29440,"byteLength":21568,"target":34962},{"buffer":2,"byteOffset":51008,"byteLength":21568,"target":34962},{"buffer":3,"byteOffset":0,"byteLength":7872,"target":34963},{"buffer":3,"byteOffset":7872,"byteLength":21568,"target":34962},{"buffer":3,"byteOffset":29440,"byteLength":21568,"target":34962},{"buffer":3,"byteOffset":51008,"byteLength":21568,"target":34962},{"buffer":4,"byteOffset":0,"byteLength":7872,"target":34963},{"buffer":4,"byteOffset":7872,"byteLength":21568,"target":34962},{"buffer":4,"byteOffset":29440,"byteLength":21568,"target":34962},{"buffer":4,"byteOffset":51008,"byteLength":21568,"target":34962},{"buffer":5,"byteOffset":0,"byteLength":7872,"target":34963},{"buffer":5,"byteOffset":7872,"byteLength":21568,"target":34962},{"buffer":5,"byteOffset":29440,"byteLength":21568,"target":34962},{"buffer":5,"byteOffset":51008,"byteLength":21568,"target":34962},{"buffer":6,"byteOffset":0,"byteLength":7872,"target":34963},{"buffer":6,"byteOffset":7872,"byteLength":21568,"target":34962},{"buffer":6,"byteOffset":29440,"byteLength":21568,"target":34962},{"buffer":6,"byteOffset":51008,"byteLength":21568,"target":34962},{"buffer":7,"byteOffset":0,"byteLength":7872,"target":34963},{"buffer":7,"byteOffset":7872,"byteLength":21568,"target":34962},{"buffer":7,"byteOffset":29440,"byteLength":21568,"target":34962},{"buffer":7,"byteOffset":51008,"byteLength":21568,"target":34962},{"buffer":8,"byteOffset":0,"byteLength":7872,"target":34963},{"buffer":8,"byteOffset":7872,"byteLength":21568,"target":34962},{"buffer":8,"byteOffset":29440,"byteLength":21568,"target":34962},{"buffer":8,"byteOffset":51008,"byteLength":21568,"target":34962},{"buffer":9,"byteOffset":0,"byteLength":7872,"target":34963},{"buffer":9,"byteOffset":7872,"byteLength":21568,"target":34962},{"buffer":9,"byteOffset":29440,"byteLength":21568,"target":34962},{"buffer":9,"byteOffset":51008,"byteLength":21568,"target":34962},{"buffer":10,"byteOffset":0,"byteLength":7872,"target":34963},{"buffer":10,"byteOffset":7872,"byteLength":21568,"target":34962},{"buffer":10,"byteOffset":29440,"byteLength":21568,"target":34962},{"buffer":10,"byteOffset":51008,"byteLength":21568,"target":34962},{"buffer":11,"byteOffset":0,"byteLength":7872,"target":34963},{"buffer":11,"byteOffset":7872,"byteLength":21568,"target":34962},{"buffer":11,"byteOffset":29440,"byteLength":21568,"target":34962},{"buffer":11,"byteOffset":51008,"byteLength":21568,"target":34962},{"buffer":12,"byteOffset":0,"byteLength":7872,"target":34963},{"buffer":12,"byteOffset":7872,"byteLength":21568,"target":34962},{"buffer":12,"byteOffset":29440,"byteLength":21568,"target":34962},{"buffer":12,"byteOffset":51008,"byteLength":21568,"target":34962}],"accessors":[{"bufferView":0,"byteOffset":0,"componentType":5123,"count":24192,"type":"SCALAR","min":[0],"max":[4224]},{"bufferView":1,"byteOffset":0,"componentType":5126,"count":4225,"type":"VEC3","min":[-15.5,-15.5,-15.5],"max":[15.5,15.5,15.5]},{"bufferView":2,"byteOffset":0,"componentType":5126,"count":4225,"type":"VEC3","min":[-1,-1,-1],"max":[1,1,1]},{"bufferView":3,"byteOffset":0,"componentType":5126,"count":4225,"type":"VEC2","min":[-0.0078125,0],"max":[1.0078125,1]},{"bufferView":4,"byteOffset":0,"componentType":5125,"count":6,"type":"SCALAR","min":[0],"max":[3]},{"bufferView":5,"byteOffset":0,"componentType":5126,"count":4,"type":"VEC3","min":[-6617,-8837.5,0],"max":[6617,8837.5,0]},{"bufferView":6,"byteOffset":0,"componentType":5126,"count":4,"type":"VEC3","min":[0,0,1],"max":[0,0,1]},{"bufferView":7,"byteOffset":0,"componentType":5126,"count":4,"type":"VEC2","min":[0,0],"max":[1,1]},{"bufferView":8,"byteOffset":0,"componentType":5125,"count":1968,"type":"SCALAR","min":[0],"max":[673]},{"bufferView":9,"byteOffset":0,"componentType":5126,"count":674,"type":"VEC3","min":[-588.4099731445312,0,0],"max":[885.1525268554688,622.6806030273438,102]},{"bufferView":10,"byteOffset":0,"componentType":5126,"count":674,"type":"VEC3","min":[-0.9999997019767761,-1,-1],"max":[1,1,1]},{"bufferView":11,"byteOffset":0,"componentType":5126,"count":674,"type":"VEC2","min":[0,0],"max":[1,1]},{"bufferView":12,"byteOffset":0,"componentType":5125,"count":1968,"type":"SCALAR","min":[0],"max":[673]},{"bufferView":13,"byteOffset":0,"componentType":5126,"count":674,"type":"VEC3","min":[-588.4099731445312,0,0],"max":[885.1525268554688,622.6806030273438,102]},{"bufferView":14,"byteOffset":0,"componentType":5126,"count":674,"type":"VEC3","min":[-0.9999997019767761,-1,-1],"max":[1,1,1]},{"bufferView":15,"byteOffset":0,"componentType":5126,"count":674,"type":"VEC2","min":[0,0],"max":[1,1]},{"bufferView":16,"byteOffset":0,"componentType":5125,"count":1968,"type":"SCALAR","min":[0],"max":[673]},{"bufferView":17,"byteOffset":0,"componentType":5126,"count":674,"type":"VEC3","min":[-588.4099731445312,0,0],"max":[885.1525268554688,622.6806030273438,102]},{"bufferView":18,"byteOffset":0,"componentType":5126,"count":674,"type":"VEC3","min":[-0.9999997019767761,-1,-1],"max":[1,1,1]},{"bufferView":19,"byteOffset":0,"componentType":5126,"count":674,"type":"VEC2","min":[0,0],"max":[1,1]},{"bufferView":20,"byteOffset":0,"componentType":5125,"count":1968,"type":"SCALAR","min":[0],"max":[673]},{"bufferView":21,"byteOffset":0,"componentType":5126,"count":674,"type":"VEC3","min":[-588.4099731445312,0,0],"max":[885.1525268554688,622.6806030273438,102]},{"bufferView":22,"byteOffset":0,"componentType":5126,"count":674,"type":"VEC3","min":[-0.9999997019767761,-1,-1],"max":[1,1,1]},{"bufferView":23,"byteOffset":0,"componentType":5126,"count":674,"type":"VEC2","min":[0,0],"max":[1,1]},{"bufferView":24,"byteOffset":0,"componentType":5125,"count":1968,"type":"SCALAR","min":[0],"max":[673]},{"bufferView":25,"byteOffset":0,"componentType":5126,"count":674,"type":"VEC3","min":[-588.4099731445312,0,0],"max":[885.1525268554688,622.6806030273438,102]},{"bufferView":26,"byteOffset":0,"componentType":5126,"count":674,"type":"VEC3","min":[-0.9999997019767761,-1,-1],"max":[1,1,1]},{"bufferView":27,"byteOffset":0,"componentType":5126,"count":674,"type":"VEC2","min":[0,0],"max":[1,1]},{"bufferView":28,"byteOffset":0,"componentType":5125,"count":1968,"type":"SCALAR","min":[0],"max":[673]},{"bufferView":29,"byteOffset":0,"componentType":5126,"count":674,"type":"VEC3","min":[-588.4099731445312,0,0],"max":[885.1525268554688,622.6806030273438,102]},{"bufferView":30,"byteOffset":0,"componentType":5126,"count":674,"type":"VEC3","min":[-0.9999997019767761,-1,-1],"max":[1,1,1]},{"bufferView":31,"byteOffset":0,"componentType":5126,"count":674,"type":"VEC2","min":[0,0],"max":[1,1]},{"bufferView":32,"byteOffset":0,"componentType":5125,"count":1968,"type":"SCALAR","min":[0],"max":[673]},{"bufferView":33,"byteOffset":0,"componentType":5126,"count":674,"type":"VEC3","min":[-588.4099731445312,0,0],"max":[885.1525268554688,622.6806030273438,102]},{"bufferView":34,"byteOffset":0,"componentType":5126,"count":674,"type":"VEC3","min":[-0.9999997019767761,-1,-1],"max":[1,1,1]},{"bufferView":35,"byteOffset":0,"componentType":5126,"count":674,"type":"VEC2","min":[0,0],"max":[1,1]},{"bufferView":36,"byteOffset":0,"componentType":5125,"count":1968,"type":"SCALAR","min":[0],"max":[673]},{"bufferView":37,"byteOffset":0,"componentType":5126,"count":674,"type":"VEC3","min":[-588.4099731445312,0,0],"max":[885.1525268554688,622.6806030273438,102]},{"bufferView":38,"byteOffset":0,"componentType":5126,"count":674,"type":"VEC3","min":[-0.9999997019767761,-1,-1],"max":[1,1,1]},{"bufferView":39,"byteOffset":0,"componentType":5126,"count":674,"type":"VEC2","min":[0,0],"max":[1,1]},{"bufferView":40,"byteOffset":0,"componentType":5125,"count":1968,"type":"SCALAR","min":[0],"max":[673]},{"bufferView":41,"byteOffset":0,"componentType":5126,"count":674,"type":"VEC3","min":[-588.4099731445312,0,0],"max":[885.1525268554688,622.6806030273438,102]},{"bufferView":42,"byteOffset":0,"componentType":5126,"count":674,"type":"VEC3","min":[-0.9999997019767761,-1,-1],"max":[1,1,1]},{"bufferView":43,"byteOffset":0,"componentType":5126,"count":674,"type":"VEC2","min":[0,0],"max":[1,1]},{"bufferView":44,"byteOffset":0,"componentType":5125,"count":1968,"type":"SCALAR","min":[0],"max":[673]},{"bufferView":45,"byteOffset":0,"componentType":5126,"count":674,"type":"VEC3","min":[-588.4099731445312,0,0],"max":[885.1525268554688,622.6806030273438,102]},{"bufferView":46,"byteOffset":0,"componentType":5126,"count":674,"type":"VEC3","min":[-0.9999997019767761,-1,-1],"max":[1,1,1]},{"bufferView":47,"byteOffset":0,"componentType":5126,"count":674,"type":"VEC2","min":[0,0],"max":[1,1]},{"bufferView":48,"byteOffset":0,"componentType":5125,"count":1968,"type":"SCALAR","min":[0],"max":[673]},{"bufferView":49,"byteOffset":0,"componentType":5126,"count":674,"type":"VEC3","min":[-588.4099731445312,0,0],"max":[885.1525268554688,622.6806030273438,102]},{"bufferView":50,"byteOffset":0,"componentType":5126,"count":674,"type":"VEC3","min":[-0.9999997019767761,-1,-1],"max":[1,1,1]},{"bufferView":51,"byteOffset":0,"componentType":5126,"count":674,"type":"VEC2","min":[0,0],"max":[1,1]}],"extensions":{"KHR_lights_punctual":{"lights":[{"type":"directional","name":"Directional Light","color":[0,1,0.5098039215686274],"intensity":3.6},{"type":"directional","name":"Default Directional Light","color":[0.9982554611650485,0.9982554611650485,0.9982554611650485],"intensity":0.587}]}},"extensionsUsed":["KHR_lights_punctual"]}